{
  "source": "C:\\Users\\Peter\\Desktop\\stuff\\MIUN\\quantitative_research\\video_compression\\videos\\HEVC_CLASS_B\\ParkScene_1920x1080_24.y4m",
  "output": "C:\\Users\\Peter\\Desktop\\stuff\\MIUN\\quantitative_research\\video_compression\\compressed_videos\\HEVC_CLASS_B\\av1\\8\\ParkScene_1920x1080_24_av1.mkv",
  "codec": "av1",
  "ok": "Input #0, yuv4mpegpipe, from 'C:\\Users\\Peter\\Desktop\\stuff\\MIUN\\quantitative_research\\video_compression\\videos\\HEVC_CLASS_B\\ParkScene_1920x1080_24.y4m':\n  Duration: 00:00:10.00, start: 0.000000, bitrate: 597198 kb/s\n  Stream #0:0: Video: rawvideo (I420 / 0x30323449), yuv420p(progressive), 1920x1080, 24 fps, 24 tbr, 24 tbn\n[out#0/matroska @ 000001e633f68ec0] Codec AVOption b:a (set bitrate (in bits/s)) has not been used for any stream. The most likely reason is either wrong type (e.g. a video option with no video streams) or that it is a private option of some decoder which was not actually used for any stream.\nStream mapping:\n  Stream #0:0 -> #0:0 (rawvideo (native) -> av1 (libsvtav1))\nPress [q] to stop, [?] for help\nSvt[info]: -------------------------------------------\nSvt[info]: SVT [version]:\tSVT-AV1 Encoder Lib v3.1.0-19-g6ecfe8ec\nSvt[info]: SVT [build]  :\tGCC 15.2.0\t 64 bit\nSvt[info]: LIB Build date: Aug 17 2025 11:37:13\nSvt[info]: -------------------------------------------\n[libsvtav1 @ 000001e633f6c080] Specified chroma sample location center is unsupported on the AV1 bit stream level. Usage of a container that allows passing this information - such as Matroska - is recommended.\nSvt[info]: Level of Parallelism: 5\nSvt[info]: Number of PPCS 93\nSvt[info]: [asm level on system : up to avx2]\nSvt[info]: [asm level selected : up to avx2]\nSvt[info]: -------------------------------------------\nSvt[info]: SVT [config]: main profile\ttier (auto)\tlevel (auto)\nSvt[info]: SVT [config]: width / height / fps numerator / fps denominator \t\t: 1920 / 1080 / 24 / 1\nSvt[info]: SVT [config]: bit-depth / color format \t\t\t\t\t: 8 / YUV420\nSvt[info]: SVT [config]: preset / tune / pred struct \t\t\t\t\t: 4 / PSNR / random access\nSvt[info]: SVT [config]: gop size / mini-gop size / key-frame type \t\t\t: 161 / 16 / key frame\nSvt[info]: SVT [config]: BRC mode / target bitrate (kbps)\t\t\t\t: VBR / 8000 \nSvt[info]: SVT [config]: AQ mode / Variance Boost \t\t\t\t\t: 2 / 0\nSvt[info]: SVT [config]: sharpness / luminance-based QP bias \t\t\t\t: 0 / 0\nSvt[info]: SVT [config]: QP scale compress strength \t\t\t\t\t: 0\nSvt[info]: -------------------------------------------\nOutput #0, matroska, to 'C:\\Users\\Peter\\Desktop\\stuff\\MIUN\\quantitative_research\\video_compression\\compressed_videos\\HEVC_CLASS_B\\av1\\8\\ParkScene_1920x1080_24_av1.mkv':\n  Metadata:\n    encoder         : Lavf62.3.100\n  Stream #0:0: Video: av1 (AV01 / 0x31305641), yuv420p(tv, progressive), 1920x1080, q=2-31, 8000 kb/s, 24 fps, 1k tbn\n    Metadata:\n      encoder         : Lavc62.11.100 libsvtav1\n    Side data:\n      cpb: bitrate max/min/avg: 0/0/8000000 buffer size: 8000000 vbv_delay: N/A\nframe=    0 fps=0.0 q=0.0 size=       0KiB time=N/A bitrate=N/A speed=N/A elapsed=0:00:03.50    \nframe=    0 fps=0.0 q=0.0 size=       0KiB time=N/A bitrate=N/A speed=N/A elapsed=0:00:04.46    \nframe=    0 fps=0.0 q=0.0 size=       0KiB time=N/A bitrate=N/A speed=N/A elapsed=0:00:05.16    \nframe=    0 fps=0.0 q=0.0 size=       0KiB time=N/A bitrate=N/A speed=N/A elapsed=0:00:05.68    \nframe=    0 fps=0.0 q=0.0 size=       0KiB time=N/A bitrate=N/A speed=N/A elapsed=0:00:06.26    \nframe=    0 fps=0.0 q=0.0 size=       0KiB time=N/A bitrate=N/A speed=N/A elapsed=0:00:06.83    \nframe=    0 fps=0.0 q=0.0 size=       0KiB time=N/A bitrate=N/A speed=N/A elapsed=0:00:07.40    \nframe=    0 fps=0.0 q=0.0 size=       0KiB time=N/A bitrate=N/A speed=N/A elapsed=0:00:07.96    \nframe=    0 fps=0.0 q=0.0 size=       0KiB time=N/A bitrate=N/A speed=N/A elapsed=0:00:08.50    \nframe=    0 fps=0.0 q=0.0 size=       0KiB time=N/A bitrate=N/A speed=N/A elapsed=0:00:09.08    \nframe=    0 fps=0.0 q=0.0 size=       0KiB time=N/A bitrate=N/A speed=N/A elapsed=0:00:09.63    \nframe=    0 fps=0.0 q=0.0 size=       0KiB time=N/A bitrate=N/A speed=N/A elapsed=0:00:10.21    \nframe=    0 fps=0.0 q=0.0 size=       0KiB time=N/A bitrate=N/A speed=N/A elapsed=0:00:10.74    \nframe=    0 fps=0.0 q=0.0 size=       0KiB time=N/A bitrate=N/A speed=N/A elapsed=0:00:11.26    \nframe=    0 fps=0.0 q=0.0 size=       0KiB time=N/A bitrate=N/A speed=N/A elapsed=0:00:11.77    \nframe=    0 fps=0.0 q=0.0 size=       0KiB time=N/A bitrate=N/A speed=N/A elapsed=0:00:12.30    \nframe=    0 fps=0.0 q=0.0 size=       0KiB time=N/A bitrate=N/A speed=N/A elapsed=0:00:12.87    \nframe=    0 fps=0.0 q=0.0 size=       0KiB time=N/A bitrate=N/A speed=N/A elapsed=0:00:13.40    \nframe=    0 fps=0.0 q=0.0 size=       0KiB time=N/A bitrate=N/A speed=N/A elapsed=0:00:13.94    \nframe=    1 fps=0.1 q=6.0 size=       1KiB time=00:00:00.00 bitrate=N/A speed=   0x elapsed=0:00:14.51    \nframe=    1 fps=0.1 q=6.0 size=       1KiB time=00:00:00.00 bitrate=N/A speed=   0x elapsed=0:00:15.10    \nframe=    1 fps=0.1 q=6.0 size=       1KiB time=00:00:00.00 bitrate=N/A speed=   0x elapsed=0:00:15.70    \nframe=    1 fps=0.1 q=6.0 size=       1KiB time=00:00:00.00 bitrate=N/A speed=   0x elapsed=0:00:16.24    \nframe=    1 fps=0.1 q=6.0 size=       1KiB time=00:00:00.00 bitrate=N/A speed=   0x elapsed=0:00:16.77    \nframe=    1 fps=0.1 q=6.0 size=       1KiB time=00:00:00.00 bitrate=N/A speed=   0x elapsed=0:00:17.31    \nframe=    1 fps=0.1 q=6.0 size=       1KiB time=00:00:00.00 bitrate=N/A speed=   0x elapsed=0:00:17.83    \nframe=    1 fps=0.1 q=6.0 size=       1KiB time=00:00:00.00 bitrate=N/A speed=   0x elapsed=0:00:18.35    \nframe=    2 fps=0.1 q=23.0 size=       1KiB time=00:00:00.04 bitrate= 107.9kbits/s speed=0.0022x elapsed=0:00:18.89    \nframe=    3 fps=0.2 q=20.0 size=       1KiB time=00:00:00.08 bitrate=  54.0kbits/s speed=0.00429x elapsed=0:00:19.41    \nframe=    4 fps=0.2 q=22.0 size=       1KiB time=00:00:00.12 bitrate=  36.0kbits/s speed=0.00627x elapsed=0:00:19.93    \nframe=    6 fps=0.3 q=19.0 size=       1KiB time=00:00:00.20 bitrate=  21.6kbits/s speed=0.0102x elapsed=0:00:20.48    \nframe=    7 fps=0.3 q=19.0 size=       1KiB time=00:00:00.25 bitrate=  18.0kbits/s speed=0.0119x elapsed=0:00:21.02    \nframe=    8 fps=0.4 q=19.0 size=       1KiB time=00:00:00.29 bitrate=  15.4kbits/s speed=0.0135x elapsed=0:00:21.54    \nframe=    9 fps=0.4 q=15.0 size=       1KiB time=00:00:00.29 bitrate=  15.4kbits/s speed=0.0132x elapsed=0:00:22.16    \nframe=   10 fps=0.4 q=18.0 size=       1KiB time=00:00:00.37 bitrate=  12.0kbits/s speed=0.0165x elapsed=0:00:22.72    \nframe=   12 fps=0.5 q=18.0 size=       1KiB time=00:00:00.45 bitrate=   9.8kbits/s speed=0.0197x elapsed=0:00:23.25    \nframe=   14 fps=0.6 q=19.0 size=       1KiB time=00:00:00.50 bitrate=   9.0kbits/s speed=0.021x elapsed=0:00:23.81    \nframe=   16 fps=0.7 q=19.0 size=       1KiB time=00:00:00.62 bitrate=   7.2kbits/s speed=0.0256x elapsed=0:00:24.40    \nframe=   17 fps=0.7 q=9.0 size=       1KiB time=00:00:00.66 bitrate=   6.7kbits/s speed=0.0267x elapsed=0:00:24.93    \nframe=   19 fps=0.7 q=19.0 size=       1KiB time=00:00:00.75 bitrate=   6.0kbits/s speed=0.0295x elapsed=0:00:25.44    \nframe=   21 fps=0.8 q=17.0 size=       1KiB time=00:00:00.83 bitrate=   5.4kbits/s speed=0.0321x elapsed=0:00:25.97    \nframe=   22 fps=0.8 q=21.0 size=       1KiB time=00:00:00.87 bitrate=   5.1kbits/s speed=0.033x elapsed=0:00:26.49    \nframe=   23 fps=0.9 q=19.0 size=       1KiB time=00:00:00.91 bitrate=   4.9kbits/s speed=0.0339x elapsed=0:00:27.04    \nframe=   24 fps=0.9 q=21.0 size=       1KiB time=00:00:00.95 bitrate=   4.7kbits/s speed=0.0348x elapsed=0:00:27.57    \nframe=   27 fps=1.0 q=19.0 size=       1KiB time=00:00:01.08 bitrate=   4.2kbits/s speed=0.0386x elapsed=0:00:28.10    \nframe=   28 fps=1.0 q=21.0 size=       1KiB time=00:00:01.12 bitrate=   4.0kbits/s speed=0.0393x elapsed=0:00:28.63    \nframe=   29 fps=1.0 q=15.0 size=       1KiB time=00:00:01.16 bitrate=   3.9kbits/s speed=0.04x elapsed=0:00:29.16    \nframe=   32 fps=1.1 q=21.0 size=       1KiB time=00:00:01.29 bitrate=   3.5kbits/s speed=0.0435x elapsed=0:00:29.71    \nframe=   33 fps=1.1 q=9.0 size=       1KiB time=00:00:01.33 bitrate=   3.4kbits/s speed=0.0441x elapsed=0:00:30.24    \nframe=   34 fps=1.1 q=22.0 size=       1KiB time=00:00:01.37 bitrate=   3.3kbits/s speed=0.0447x elapsed=0:00:30.77    \nframe=   35 fps=1.1 q=21.0 size=       1KiB time=00:00:01.41 bitrate=   3.2kbits/s speed=0.0451x elapsed=0:00:31.38    \nframe=   38 fps=1.2 q=22.0 size=       1KiB time=00:00:01.54 bitrate=   2.9kbits/s speed=0.0483x elapsed=0:00:31.93    \nframe=   39 fps=1.2 q=21.0 size=       1KiB time=00:00:01.58 bitrate=   2.8kbits/s speed=0.0487x elapsed=0:00:32.48    \nframe=   40 fps=1.2 q=22.0 size=       1KiB time=00:00:01.62 bitrate=   2.8kbits/s speed=0.0492x elapsed=0:00:33.05    \nframe=   40 fps=1.2 q=22.0 size=       1KiB time=00:00:01.62 bitrate=   2.8kbits/s speed=0.0483x elapsed=0:00:33.63    \nframe=   42 fps=1.2 q=22.0 size=       1KiB time=00:00:01.70 bitrate=   2.6kbits/s speed=0.0499x elapsed=0:00:34.23    \nframe=   42 fps=1.2 q=22.0 size=       1KiB time=00:00:01.70 bitrate=   2.6kbits/s speed=0.0491x elapsed=0:00:34.79    \nframe=   43 fps=1.2 q=20.0 size=       1KiB time=00:00:01.75 bitrate=   2.6kbits/s speed=0.0495x elapsed=0:00:35.37    \nframe=   44 fps=1.2 q=20.0 size=       1KiB time=00:00:01.79 bitrate=   2.5kbits/s speed=0.0499x elapsed=0:00:35.91    \nframe=   47 fps=1.3 q=20.0 size=       1KiB time=00:00:01.91 bitrate=   2.3kbits/s speed=0.0526x elapsed=0:00:36.46    \nframe=   51 fps=1.4 q=22.0 size=       1KiB time=00:00:02.08 bitrate=   2.2kbits/s speed=0.0563x elapsed=0:00:36.98    \nframe=   52 fps=1.4 q=23.0 size=       1KiB time=00:00:02.12 bitrate=   2.1kbits/s speed=0.0567x elapsed=0:00:37.48    \nframe=   53 fps=1.4 q=20.0 size=       1KiB time=00:00:02.16 bitrate=   2.1kbits/s speed=0.057x elapsed=0:00:38.01    \nframe=   54 fps=1.4 q=20.0 size=       1KiB time=00:00:02.20 bitrate=   2.0kbits/s speed=0.0573x elapsed=0:00:38.53    \nframe=   55 fps=1.4 q=17.0 size=       1KiB time=00:00:02.25 bitrate=   2.0kbits/s speed=0.0576x elapsed=0:00:39.09    \nframe=   58 fps=1.5 q=22.0 size=       1KiB time=00:00:02.33 bitrate=   1.9kbits/s speed=0.0588x elapsed=0:00:39.69    \nframe=   59 fps=1.5 q=20.0 size=       1KiB time=00:00:02.41 bitrate=   1.9kbits/s speed=0.06x elapsed=0:00:40.28    \nframe=   60 fps=1.5 q=20.0 size=       1KiB time=00:00:02.45 bitrate=   1.8kbits/s speed=0.0602x elapsed=0:00:40.85    \nframe=   62 fps=1.5 q=22.0 size=       1KiB time=00:00:02.54 bitrate=   1.8kbits/s speed=0.0614x elapsed=0:00:41.38    \nframe=   64 fps=1.5 q=22.0 size=       1KiB time=00:00:02.62 bitrate=   1.7kbits/s speed=0.0626x elapsed=0:00:41.91    \nframe=   67 fps=1.6 q=22.0 size=       1KiB time=00:00:02.75 bitrate=   1.6kbits/s speed=0.0648x elapsed=0:00:42.44    \nframe=   69 fps=1.6 q=20.0 size=       1KiB time=00:00:02.83 bitrate=   1.6kbits/s speed=0.0659x elapsed=0:00:42.96    \nframe=   70 fps=1.6 q=20.0 size=       1KiB time=00:00:02.87 bitrate=   1.6kbits/s speed=0.0661x elapsed=0:00:43.47    \nframe=   71 fps=1.6 q=16.0 size=       1KiB time=00:00:02.91 bitrate=   1.5kbits/s speed=0.0663x elapsed=0:00:44.01    \nframe=   74 fps=1.7 q=23.0 size=       1KiB time=00:00:03.04 bitrate=   1.5kbits/s speed=0.0682x elapsed=0:00:44.58    \nframe=   75 fps=1.7 q=20.0 size=       1KiB time=00:00:03.08 bitrate=   1.5kbits/s speed=0.0684x elapsed=0:00:45.10    \nframe=   77 fps=1.7 q=16.0 size=       1KiB time=00:00:03.12 bitrate=   1.4kbits/s speed=0.0685x elapsed=0:00:45.64    \nframe=   79 fps=1.7 q=20.0 size=       1KiB time=00:00:03.25 bitrate=   1.4kbits/s speed=0.0704x elapsed=0:00:46.18    \nframe=   81 fps=1.7 q=10.0 size=       1KiB time=00:00:03.33 bitrate=   1.3kbits/s speed=0.0713x elapsed=0:00:46.72    \nframe=   83 fps=1.8 q=22.0 size=       1KiB time=00:00:03.41 bitrate=   1.3kbits/s speed=0.0723x elapsed=0:00:47.27    \nframe=   85 fps=1.8 q=20.0 size=       1KiB time=00:00:03.50 bitrate=   1.3kbits/s speed=0.0732x elapsed=0:00:47.80    \nframe=   87 fps=1.8 q=17.0 size=       1KiB time=00:00:03.58 bitrate=   1.3kbits/s speed=0.0741x elapsed=0:00:48.34    \nframe=   89 fps=1.8 q=16.0 size=       1KiB time=00:00:03.66 bitrate=   1.2kbits/s speed=0.075x elapsed=0:00:48.87    \nframe=   91 fps=1.8 q=21.0 size=       1KiB time=00:00:03.75 bitrate=   1.2kbits/s speed=0.0759x elapsed=0:00:49.41    \nframe=   92 fps=1.8 q=25.0 size=       1KiB time=00:00:03.79 bitrate=   1.2kbits/s speed=0.0759x elapsed=0:00:49.98    \nframe=   95 fps=1.9 q=21.0 size=       1KiB time=00:00:03.91 bitrate=   1.1kbits/s speed=0.0775x elapsed=0:00:50.56    \nframe=   99 fps=1.9 q=23.0 size=       1KiB time=00:00:04.08 bitrate=   1.1kbits/s speed=0.0799x elapsed=0:00:51.12    \nframe=  100 fps=1.9 q=22.0 size=       1KiB time=00:00:04.12 bitrate=   1.1kbits/s speed=0.0798x elapsed=0:00:51.71    \nframe=  103 fps=2.0 q=18.0 size=       1KiB time=00:00:04.25 bitrate=   1.1kbits/s speed=0.0814x elapsed=0:00:52.23    \nframe=  105 fps=2.0 q=17.0 size=       1KiB time=00:00:04.33 bitrate=   1.0kbits/s speed=0.0821x elapsed=0:00:52.78    \nframe=  108 fps=2.0 q=24.0 size=       1KiB time=00:00:04.41 bitrate=   1.0kbits/s speed=0.0828x elapsed=0:00:53.31    \nframe=  110 fps=2.0 q=24.0 size=       1KiB time=00:00:04.54 bitrate=   1.0kbits/s speed=0.0843x elapsed=0:00:53.88    \nframe=  114 fps=2.1 q=24.0 size=       1KiB time=00:00:04.70 bitrate=   1.0kbits/s speed=0.0865x elapsed=0:00:54.41    \nframe=  116 fps=2.1 q=20.0 size=    5120KiB time=00:00:04.79 bitrate=8753.3kbits/s speed=0.0872x elapsed=0:00:54.93    \nframe=  118 fps=2.1 q=24.0 size=    5120KiB time=00:00:04.87 bitrate=8603.7kbits/s speed=0.0878x elapsed=0:00:55.49    \nframe=  119 fps=2.1 q=17.0 size=    5120KiB time=00:00:04.91 bitrate=8530.8kbits/s speed=0.0877x elapsed=0:00:56.05    \nframe=  122 fps=2.2 q=24.0 size=    5120KiB time=00:00:05.04 bitrate=8319.3kbits/s speed=0.0891x elapsed=0:00:56.59    \nframe=  123 fps=2.2 q=21.0 size=    5120KiB time=00:00:05.08 bitrate=8251.1kbits/s speed=0.089x elapsed=0:00:57.14    \nframe=  125 fps=2.2 q=17.0 size=    5120KiB time=00:00:05.16 bitrate=8118.0kbits/s speed=0.0896x elapsed=0:00:57.68    \nframe=  130 fps=2.2 q=24.0 size=    5120KiB time=00:00:05.33 bitrate=7864.3kbits/s speed=0.0916x elapsed=0:00:58.20    \nframe=  131 fps=2.2 q=23.0 size=    5120KiB time=00:00:05.41 bitrate=7743.3kbits/s speed=0.0922x elapsed=0:00:58.77    \nframe=  135 fps=2.3 q=20.0 size=    5120KiB time=00:00:05.58 bitrate=7512.2kbits/s speed=0.0942x elapsed=0:00:59.28    \nframe=  136 fps=2.3 q=23.0 size=    5120KiB time=00:00:05.62 bitrate=7456.5kbits/s speed=0.094x elapsed=0:00:59.81    \nframe=  140 fps=2.3 q=21.0 size=    5120KiB time=00:00:05.79 bitrate=7242.0kbits/s speed=0.096x elapsed=0:01:00.33    \nframe=  143 fps=2.4 q=18.0 size=    5120KiB time=00:00:05.91 bitrate=7089.0kbits/s speed=0.0972x elapsed=0:01:00.84    \nframe=  145 fps=2.4 q=10.0 size=    5120KiB time=00:00:06.00 bitrate=6990.5kbits/s speed=0.0977x elapsed=0:01:01.43    \nframe=  147 fps=2.4 q=22.0 size=    5120KiB time=00:00:06.08 bitrate=6894.7kbits/s speed=0.0981x elapsed=0:01:01.98    \nframe=  151 fps=2.4 q=22.0 size=    5120KiB time=00:00:06.25 bitrate=6710.9kbits/s speed= 0.1x elapsed=0:01:02.52    \nframe=  153 fps=2.4 q=16.0 size=    5120KiB time=00:00:06.33 bitrate=6622.6kbits/s speed= 0.1x elapsed=0:01:03.04    \nframe=  157 fps=2.5 q=16.0 size=    5120KiB time=00:00:06.50 bitrate=6452.8kbits/s speed=0.102x elapsed=0:01:03.58    \nframe=  159 fps=2.5 q=19.0 size=    5120KiB time=00:00:06.58 bitrate=6371.1kbits/s speed=0.103x elapsed=0:01:04.11    \nframe=  180 fps=2.8 q=21.0 size=    6400KiB time=00:00:07.45 bitrate=7029.6kbits/s speed=0.115x elapsed=0:01:04.69    \nframe=  186 fps=2.9 q=16.0 size=    6400KiB time=00:00:07.70 bitrate=6801.6kbits/s speed=0.118x elapsed=0:01:05.21    \nframe=  190 fps=2.9 q=16.0 size=    6400KiB time=00:00:07.87 bitrate=6657.6kbits/s speed=0.12x elapsed=0:01:05.72    \nframe=  194 fps=2.9 q=9.0 size=    6400KiB time=00:00:08.04 bitrate=6519.6kbits/s speed=0.121x elapsed=0:01:06.25    \nframe=  198 fps=3.0 q=18.0 size=    6400KiB time=00:00:08.20 bitrate=6387.3kbits/s speed=0.123x elapsed=0:01:06.79    \nframe=  202 fps=3.0 q=16.0 size=    6400KiB time=00:00:08.37 bitrate=6260.2kbits/s speed=0.124x elapsed=0:01:07.32    \nframe=  202 fps=3.0 q=16.0 size=    6400KiB time=00:00:08.37 bitrate=6260.2kbits/s speed=0.123x elapsed=0:01:07.83    \nframe=  206 fps=3.0 q=14.0 size=    6400KiB time=00:00:08.54 bitrate=6138.0kbits/s speed=0.125x elapsed=0:01:08.35    \nframe=  212 fps=3.1 q=20.0 size=    6400KiB time=00:00:08.79 bitrate=5963.5kbits/s speed=0.128x elapsed=0:01:08.87    \nframe=  218 fps=3.1 q=15.0 size=    6400KiB time=00:00:09.04 bitrate=5798.6kbits/s speed=0.13x elapsed=0:01:09.39    \nframe=  224 fps=3.2 q=20.0 size=    6400KiB time=00:00:09.29 bitrate=5642.6kbits/s speed=0.133x elapsed=0:01:09.91    \n[out#0/matroska @ 000001e633f68ec0] video:9828KiB audio:0KiB subtitle:0KiB other streams:0KiB global headers:0KiB muxing overhead: 0.018085%\nframe=  240 fps=3.4 q=16.0 Lsize=    9830KiB time=00:00:09.95 bitrate=8086.0kbits/s speed=0.142x elapsed=0:01:10.05    \n",
  "seconds": 71.08883380889893,
  "probe_out": {}
}